<svg fill="#F4F1EA" height="32" width="32" xmlns="http://www.w3.org/2000/svg" viewBox="0 0 512 512" xml:space="preserve" stroke="#F4F1EA">
<path d="M511.894 19.228c-.031-.316-.09-.622-.135-.933-.054-.377-.098-.755-.172-1.13-.071-.358-.169-.705-.258-1.056-.081-.323-.152-.648-.249-.968-.104-.345-.234-.678-.355-1.015-.115-.319-.22-.641-.35-.956-.13-.315-.284-.616-.428-.923-.153-.324-.297-.651-.467-.969-.158-.294-.337-.574-.508-.86-.186-.311-.362-.626-.565-.93-.211-.316-.447-.613-.674-.917-.19-.253-.366-.513-.568-.76a21.46 21.46 0 0 0-1.402-1.551l-.011-.012-.011-.01a21.489 21.489 0 0 0-1.552-1.403c-.247-.203-.507-.379-.761-.569-.303-.227-.6-.462-.916-.673-.304-.203-.619-.379-.931-.565-.286-.171-.565-.35-.859-.508-.318-.17-.644-.314-.969-.467-.307-.145-.609-.298-.923-.429-.315-.13-.637-.236-.957-.35-.337-.121-.669-.25-1.013-.354-.32-.097-.646-.168-.969-.249-.351-.089-.698-.187-1.055-.258-.375-.074-.753-.119-1.13-.173-.311-.044-.617-.104-.933-.135A21.803 21.803 0 0 0 490.667 0H213.333C201.551 0 192 9.551 192 21.333c0 11.782 9.551 21.333 21.333 21.333h225.83L6.248 475.582c-8.331 8.331-8.331 21.839 0 30.17 8.331 8.331 21.839 8.331 30.17 0L469.333 72.837v225.83c0 11.782 9.551 21.333 21.333 21.333S512 310.449 512 298.667V21.335c0-.704-.037-1.407-.106-2.107z"/>
</svg>